<svg preserveAspectRatio="none" width="100%" height="100%" overflow="visible" style="display: block;" viewBox="0 0 20 20" fill="none" xmlns="http://www.w3.org/2000/svg">
<g id="&#229;&#183;&#178;&#231;&#130;&#185;&#232;&#181;&#158;icon">
<path id="Vector" d="M2.38714e-06 7.68614C-2.44382e-05 6.55483 0.345652 5.44923 0.992817 4.51076C1.63998 3.57228 2.55921 2.84359 3.63293 2.4179C4.70666 1.99221 5.88605 1.88886 7.02027 2.12108C8.15449 2.3533 9.19196 2.91053 9.99999 3.72149C10.808 2.91053 11.8455 2.3533 12.9797 2.12108C14.1139 1.88886 15.2933 1.99221 16.367 2.4179C17.4408 2.84359 18.36 3.57228 19.0072 4.51076C19.6543 5.44923 20 6.55483 20 7.68614C20.0022 8.57423 19.7902 9.45035 19.3811 10.2436C18.9721 11.0368 18.3774 11.7249 17.6453 12.2521L11.054 17.5542C10.6875 17.8491 10.2254 18.007 9.75051 17.9998C9.2756 17.9925 8.81884 17.8205 8.46199 17.5145L2.042 12.0094C1.40114 11.4762 0.886613 10.8134 0.534033 10.0669C0.181453 9.32048 -0.000760738 8.50814 2.38714e-06 7.68614Z" fill="#FF3AA5"/>
</g>
</svg>
