<svg preserveAspectRatio="none" width="100%" height="100%" overflow="visible" style="display: block;" viewBox="0 0 26 26" fill="none" xmlns="http://www.w3.org/2000/svg">
<g id="Icon">
<path id="Vector" d="M15.7084 4.33334H10.2918L7.58342 7.58334H4.33342C3.75879 7.58334 3.20769 7.81161 2.80136 8.21794C2.39503 8.62427 2.16676 9.17537 2.16676 9.75V19.5C2.16676 20.0746 2.39503 20.6257 2.80136 21.0321C3.20769 21.4384 3.75879 21.6667 4.33342 21.6667H21.6668C22.2414 21.6667 22.7925 21.4384 23.1988 21.0321C23.6052 20.6257 23.8334 20.0746 23.8334 19.5V9.75C23.8334 9.17537 23.6052 8.62427 23.1988 8.21794C22.7925 7.81161 22.2414 7.58334 21.6668 7.58334H18.4168L15.7084 4.33334Z" stroke="#ADADAD" stroke-width="2.16667" stroke-linecap="round" stroke-linejoin="round"/>
<path id="Vector_2" d="M13.0005 17.3344C14.7957 17.3344 16.2511 15.8791 16.2511 14.0839C16.2511 12.2886 14.7957 10.8333 13.0005 10.8333C11.2053 10.8333 9.75 12.2886 9.75 14.0839C9.75 15.8791 11.2053 17.3344 13.0005 17.3344Z" stroke="#ADADAD" stroke-width="2.16667" stroke-linecap="round" stroke-linejoin="round"/>
</g>
</svg>
