<svg preserveAspectRatio="none" width="100%" height="100%" overflow="visible" style="display: block;" viewBox="0 0 26.6823 26.6823" fill="none" xmlns="http://www.w3.org/2000/svg">
<g id="Icon">
<path id="Vector" d="M16.6763 23.347V14.4529C16.6763 14.158 16.5592 13.8752 16.3507 13.6667C16.1422 13.4583 15.8594 13.3411 15.5645 13.3411H11.1175C10.8226 13.3411 10.5398 13.4583 10.3313 13.6667C10.1228 13.8752 10.0057 14.158 10.0057 14.4529V23.347" stroke="#FF3AA5" stroke-width="1.89571" stroke-linecap="round" stroke-linejoin="round"/>
<path id="Vector_2" d="M3.33513 11.1176C3.33506 10.7942 3.40555 10.4746 3.54169 10.1812C3.67783 9.88778 3.87634 9.62761 4.12337 9.41883L11.9057 2.74937C12.307 2.41018 12.8155 2.22408 13.341 2.22408C13.8665 2.22408 14.375 2.41018 14.7763 2.74937L22.5586 9.41883C22.8057 9.62761 23.0042 9.88778 23.1403 10.1812C23.2764 10.4746 23.3469 10.7942 23.3469 11.1176V21.1235C23.3469 21.7132 23.1126 22.2787 22.6956 22.6957C22.2786 23.1127 21.713 23.347 21.1233 23.347H5.55866C4.96894 23.347 4.40338 23.1127 3.98639 22.6957C3.5694 22.2787 3.33513 21.7132 3.33513 21.1235V11.1176Z" stroke="#FF3AA5" stroke-width="1.89571" stroke-linecap="round" stroke-linejoin="round"/>
</g>
</svg>
